<svg width="218" height="21" viewBox="0 0 218 21" fill="none" xmlns="http://www.w3.org/2000/svg">
<g clip-path="url(#clip0_49_3)">
<path fill-rule="evenodd" clip-rule="evenodd" d="M24.7397 10.8935L24.7488 10.8876L24.7851 10.8728L24.8396 10.8521H24.8457L24.8638 10.8432L24.9123 10.8225L24.9456 10.8107L24.9849 10.7899L25.0182 10.7751H25.0212L25.0273 10.7722L25.0545 10.7604L25.0788 10.7485H25.0878L25.1423 10.7219H25.1484L25.2029 10.6923L25.2211 10.6834L25.2544 10.6686L25.2695 10.6598H25.2725L25.3391 10.6213L25.3845 10.5976L25.4209 10.5769L25.439 10.568L25.4663 10.5503H25.4693L25.5026 10.5296L25.5117 10.5237H25.5208L25.5389 10.5059L25.5783 10.4822L25.6176 10.4586L25.6358 10.4467L25.6419 10.4408C25.6661 10.4231 25.6903 10.4083 25.7115 10.3905L25.7357 10.3757L25.7418 10.3698H25.7539L25.8326 10.3047L25.8659 10.2781L25.884 10.2663L25.9143 10.2426L25.9385 10.2249L25.9749 10.1982H25.9779L25.987 10.1864L25.9991 10.1775H26.0051L26.0384 10.1479L26.0778 10.1124L26.096 10.0976L26.1414 10.0592L26.1777 10.0266L26.1898 10.0207L26.1989 10.0118L26.2171 9.99112L26.2534 9.95562L26.2958 9.9142L26.32 9.89349L26.3593 9.85799L26.3745 9.84319L26.4017 9.81361L26.4229 9.78994L26.4502 9.76331L26.5228 9.68343V9.67456C26.538 9.6568 26.5531 9.63905 26.5682 9.6213L26.5925 9.59467L26.6318 9.54438C27.2585 8.76627 27.5885 7.69527 27.5885 6.44083C27.5885 3.54734 25.6903 2.01775 22.0938 2.01775H15.2156H14.9401V18.6686H16.5083V11.3343H22.1846C22.2512 11.3343 22.3117 11.3343 22.3723 11.3314H22.4571H22.4631H22.4813L22.563 11.3254H22.5691C22.7749 11.3195 22.9414 11.3047 23.0958 11.284H23.1231H23.1412H23.1503H23.1564H23.1685H23.1806H23.1867L23.2078 11.2811L23.2714 11.2722H23.2775L26.6924 18.5207L26.765 18.6805H28.3877L28.2091 18.2959L24.7306 10.9083L24.7397 10.8935ZM0.275491 2.01479H0V3.4142H5.80045V18.6657H7.3656V3.4142H13.163V2.01479H0.275491ZM74.3674 18.2219L66.5447 9.01479L73.877 2.48521L74.4038 2.01479H72.2664L72.1877 2.0858L62.2852 10.9467V2.01479H60.717V18.6657H62.2852V12.8284L65.3973 10.0562L72.6691 18.568L72.7508 18.6657H74.7368L74.3614 18.2219H74.3674ZM57.5897 11.7929H57.3415L57.3264 12.0355C57.1447 14.9645 54.7319 17.3462 51.9467 17.3462C48.2473 17.3462 45.6649 14.4675 45.6649 10.3432C45.6649 6.21894 48.2473 3.33728 51.9467 3.33728C54.6259 3.33728 56.6815 4.92012 57.063 7.27219L57.0993 7.48816H58.5888L58.5615 7.2071C58.5555 7.1568 57.9046 2 51.9497 2C49.6096 2 47.6266 2.84024 46.2159 4.43787C44.8929 5.93195 44.1664 8.02959 44.1664 10.3432C44.1664 12.6568 44.8929 14.7544 46.2159 16.2485C47.6266 17.8432 49.6096 18.6864 51.9497 18.6864C55.5644 18.6864 58.4586 15.9053 58.831 12.074L58.8582 11.7899H57.5928L57.5897 11.7929ZM36.0469 2C31.6058 2 29.3534 4.39349 29.3534 9.10947V18.6657H30.9216V12.7337H40.9422V18.6657H42.5104V9.10947C42.5104 4.39053 40.3337 2 36.0469 2ZM40.9422 9.10947V11.3343H30.9216V9.10947C30.9216 5.16272 32.5019 3.40237 36.0469 3.40237C39.2983 3.40237 40.9422 5.32249 40.9422 9.10947ZM16.5113 3.4142H22.0998C23.2805 3.4142 26.0233 3.71598 26.0233 6.50592C26.0233 9.49112 23.5651 9.93491 22.0968 9.93491H16.5083V3.4142H16.5113Z" fill="#070200"/>
<path fill-rule="evenodd" clip-rule="evenodd" d="M98.3897 18.6746H103.642V6.29291H108.416V2.02072H93.6185V6.28995H98.3897V18.6746ZM118.428 12.8698L121.549 18.6775H126.32L122.606 11.8905C123.653 11.3255 124.537 10.503 125.203 9.42013C125.681 8.64202 125.909 7.69824 125.909 6.78403C125.909 3.63019 123.329 2.02368 120.35 2.02368H110.348V18.6775H115.597V12.8698H118.431H118.428ZM115.594 5.99114H118.055C120.06 5.99114 120.656 6.59469 120.656 7.64498C120.656 9.13611 119.321 9.30179 118.343 9.30179H115.597V5.99114H115.594ZM133.665 12.7278L135.309 7.59469H135.357L136.883 12.7278H133.665ZM126.478 18.6746H131.754L132.52 16.2959H137.936L138.654 18.6746H144.094L137.885 2.02072H132.756L126.478 18.6746ZM145.259 18.6746H150.512V2.02072H145.259V18.6746ZM153.206 18.6746H166.003V14.4083H158.462V2.02072H153.206V18.6746Z" fill="#070200"/>
<path fill-rule="evenodd" clip-rule="evenodd" d="M83.6282 3.95859C84.6575 3.95859 85.3326 4.75445 85.3326 5.82546C85.3326 7.12131 84.376 7.8077 83.3769 8.47043C82.7715 7.64794 81.8602 6.82841 81.8602 5.75741C81.8602 4.66569 82.6504 3.95859 83.6282 3.95859ZM85.82 15.1243C85.3054 15.787 84.6061 16.9468 82.6716 16.9468C81.1337 16.9468 79.9893 15.9675 79.9893 14.213C79.9893 12.2781 81.5757 11.7544 82.5535 11.1598L85.82 15.1243ZM88.7566 18.6775H92.0201L88.8262 14.8935C89.574 13.7545 89.9675 12.3195 90.134 10.9053H87.803C87.6909 11.9556 87.479 12.5947 87.2883 13.0947L84.6999 10.0414C86.3105 9.19824 87.7091 7.83137 87.7091 5.91717C87.7091 3.3225 85.702 2.02072 83.5556 2.02072C81.2941 2.02072 79.4747 3.54735 79.4747 5.8935C79.4747 7.30475 80.292 8.37871 81.1518 9.44676C79.2415 10.4053 77.3282 11.8639 77.3282 14.1657C77.3282 17.216 79.5201 19 82.5747 19C84.5062 19 86.0017 18.3314 87.2399 16.8521L88.7536 18.6775H88.7566Z" fill="#86BC22"/>
</g>
<g clip-path="url(#clip1_49_3)">
<path fill-rule="evenodd" clip-rule="evenodd" d="M205.476 6.2041C205.476 5.99492 205.308 5.82758 205.102 5.82758H196.437C196.231 5.82758 196.063 5.99647 196.063 6.2041C196.063 6.28467 196.119 6.41792 196.143 6.4861C196.143 6.4861 198.576 13.0667 198.579 13.0745C198.648 13.2449 198.765 13.3642 198.942 13.3642C199.072 13.3642 199.198 13.3053 199.292 13.1953L205.345 6.4892C205.425 6.41947 205.476 6.31876 205.476 6.20565" fill="#86BC22"/>
<path fill-rule="evenodd" clip-rule="evenodd" d="M196.658 0.621458C196.318 0.409181 195.725 0.375092 195.725 0.375092C195.725 0.375092 193.031 0.102385 192.288 0.0295598C191.544 -0.0448149 191.437 0.0357577 191.385 0.139572C191.334 0.240288 191.401 0.455665 191.81 0.773306C191.959 0.887967 192.123 0.990233 192.286 1.08165C192.441 1.16687 192.759 1.26449 192.767 1.26604C192.83 1.28153 192.898 1.25829 192.931 1.19941C192.962 1.14828 192.956 1.0863 192.925 1.03982C192.925 1.03827 192.899 0.99798 192.871 0.949946C192.745 0.728372 193.103 0.781054 193.103 0.781054C193.103 0.781054 196.525 1.0801 196.645 1.08785C196.914 1.10644 196.922 0.787252 196.656 0.621458M196.18 17.0877C196.042 17.0009 195.844 17.0505 195.762 17.1822L195.748 17.2024C194.527 19.0121 192.509 20.0503 190.343 19.9806C186.875 19.869 184.144 16.9328 184.255 13.4356C184.365 9.93844 187.277 7.18347 190.746 7.29504C191.263 7.31208 191.778 7.39265 192.271 7.5352C192.435 7.58789 192.6 7.51661 192.661 7.36786C192.724 7.21291 192.652 7.03472 192.494 6.96965C191.813 6.73258 191.104 6.60087 190.382 6.57763C186.439 6.44902 183.129 9.58206 183.003 13.5565C182.877 17.5324 185.981 20.87 189.924 20.997C192.5 21.0791 194.931 19.7481 196.27 17.5231L196.295 17.4828V17.4797C196.355 17.3403 196.307 17.1698 196.18 17.0893V17.0877ZM211.085 13.7238L208.03 6.29718C208.03 6.29718 207.967 6.17942 207.921 6.26309C207.89 6.34831 207.852 6.42423 207.816 6.49241C207.69 6.73723 207.544 6.90767 207.489 6.97429C207.478 6.99289 207.466 7.02853 207.494 7.08431C207.494 7.08431 210.75 13.8632 210.752 13.8663C210.795 13.9609 210.904 14.0012 210.994 13.9547C211.079 13.9128 211.117 13.8121 211.086 13.7222L211.085 13.7238ZM217.505 11.1594C216.567 8.73604 214.395 7.00528 211.837 6.63961C211.665 6.61327 211.507 6.73258 211.483 6.89527C211.457 7.06261 211.572 7.22066 211.738 7.247C213.877 7.66071 215.625 9.12806 216.416 11.1703C217.028 12.7492 216.994 14.4737 216.318 16.0263C215.642 17.5789 214.409 18.7735 212.844 19.3902C212.185 19.649 211.497 19.7946 210.796 19.8225C208.12 19.9263 205.668 18.304 204.694 15.7877C204.506 15.3012 204.377 14.7929 204.311 14.2785C204.294 14.1019 204.17 13.981 203.999 13.9841C203.837 13.9903 203.706 14.1282 203.708 14.2956C203.758 15.0192 203.918 15.7288 204.181 16.4075C205.288 19.2678 208.076 21.1117 211.117 20.9939C211.913 20.9629 212.696 20.7987 213.444 20.5027C215.224 19.8024 216.627 18.4435 217.393 16.6802C218.161 14.9153 218.199 12.9553 217.505 11.1594ZM209.924 3.02314C209.893 2.32278 209.397 1.57748 208.646 1.5124C208.644 1.5124 205.712 1.2273 205.598 1.2273C205.187 1.2304 205.302 1.62552 205.302 1.62552C205.302 1.62552 205.879 2.86354 206.056 3.2881C206.076 3.33613 206.119 3.46939 206.131 3.52052C206.145 3.58095 206.148 3.64293 206.119 3.69871C206.096 3.74519 206.064 3.76069 206.021 3.78238C205.982 3.80252 205.964 3.84901 205.981 3.89085C205.995 3.92493 206.027 3.94508 206.061 3.94353C206.28 3.95437 206.647 3.99776 207.03 4.13876C207.047 4.14496 207.064 4.14806 207.079 4.13721C207.093 4.12791 207.101 4.11242 207.101 4.09538C207.101 4.08298 207.098 4.06903 207.094 4.06284C207.094 4.05974 206.365 2.26545 206.277 1.99584C206.233 1.85639 206.368 1.86259 206.368 1.86259C206.956 1.90442 207.855 1.97415 208.469 2.02683C209.013 2.07331 209.397 2.53816 209.397 3.06807C209.397 3.62124 209.04 3.96677 208.478 4.06284C208.478 4.06284 208.465 4.06284 208.458 4.06284C208.316 4.07368 208.21 4.20229 208.22 4.35104C208.231 4.48894 208.34 4.59276 208.471 4.5974C208.474 4.5974 208.506 4.5974 208.511 4.59585C209.216 4.54472 209.965 3.97762 209.924 3.02314ZM207.56 5.15521C207.429 4.87011 207.219 4.66558 206.918 4.53233C206.548 4.36808 206.17 4.34794 205.881 4.34794C205.793 4.34794 196.22 4.71981 195.905 4.72446C195.469 4.72446 195.375 4.41302 195.369 4.39442C195.361 4.36963 194.553 2.18488 194.429 1.81145C194.3 1.41789 193.55 1.31872 193.55 1.31872C193.509 1.32337 193.461 1.32802 193.424 1.38535C193.378 1.45662 193.397 1.55424 193.47 1.60382C193.493 1.61777 193.515 1.62862 193.536 1.64101C193.61 1.67975 193.652 1.70764 193.685 1.79286C193.69 1.80371 194.601 4.24567 194.804 4.81123C194.96 5.24818 195.453 5.27142 195.605 5.27142C195.638 5.27142 205.711 5.26678 205.712 5.26678C205.903 5.26678 206.102 5.25283 206.29 5.29157C206.38 5.31016 206.482 5.3396 206.54 5.41708C206.689 5.61541 206.643 5.84628 206.486 6.02447C205.843 6.75427 198.974 14.3482 198.974 14.3482C198.788 14.5218 198.548 14.7449 197.991 14.6814C197.886 14.669 190.322 13.6727 190.319 13.6727C190.217 13.6727 190.136 13.7563 190.136 13.8586C190.136 13.9531 190.208 14.0275 190.299 14.0383C190.299 14.0383 197.416 15.594 198.405 15.6374C198.436 15.6374 198.465 15.6389 198.495 15.6389C199.187 15.6389 199.676 15.2283 199.889 15.0068C199.963 14.9308 207.15 6.72483 207.15 6.72483C207.153 6.72173 207.389 6.47691 207.534 6.15462C207.65 5.89276 207.746 5.56892 207.56 5.15676V5.15521ZM198.149 13.8942C198.149 13.8942 195.647 7.16488 195.639 7.15558C195.601 7.07191 195.499 6.97894 195.406 6.99754C195.338 7.00993 195.298 7.04867 195.252 7.0967C195.201 7.14938 190.802 12.9351 190.802 12.9351C190.752 13.025 190.781 13.1396 190.87 13.1923C190.959 13.245 191.061 13.214 191.123 13.1226C191.125 13.1226 195.152 8.33628 195.155 8.33318C195.208 8.2681 195.264 8.20303 195.344 8.19838C195.452 8.19373 195.501 8.35797 195.493 8.33783C195.486 8.31149 197.802 14.0321 197.803 14.0321C197.842 14.1282 197.949 14.1762 198.045 14.1375C198.14 14.0988 198.187 13.9903 198.151 13.8942H198.149Z" fill="#070200"/>
</g>
<defs>
<clipPath id="clip0_49_3">
<rect width="166" height="17" fill="white" transform="translate(0 2)"/>
</clipPath>
<clipPath id="clip1_49_3">
<rect width="35" height="21" fill="white" transform="translate(183)"/>
</clipPath>
</defs>
</svg>
