<svg width="218" height="21" viewBox="0 0 218 21" fill="none" xmlns="http://www.w3.org/2000/svg">
<g clip-path="url(#clip0_3220_21)">
<path fill-rule="evenodd" clip-rule="evenodd" d="M24.7397 10.8935L24.7488 10.8876L24.7851 10.8728L24.8396 10.8521H24.8457L24.8638 10.8432L24.9123 10.8225L24.9456 10.8107L24.9849 10.7899L25.0182 10.7751H25.0212L25.0273 10.7722L25.0545 10.7604L25.0788 10.7485H25.0878L25.1423 10.7219H25.1484L25.2029 10.6923L25.2211 10.6834L25.2544 10.6686L25.2695 10.6598H25.2725L25.3391 10.6213L25.3845 10.5976L25.4209 10.5769L25.439 10.568L25.4663 10.5503H25.4693L25.5026 10.5296L25.5117 10.5237H25.5208L25.5389 10.5059L25.5783 10.4822L25.6176 10.4586L25.6358 10.4467L25.6419 10.4408C25.6661 10.4231 25.6903 10.4083 25.7115 10.3905L25.7357 10.3757L25.7418 10.3698H25.7539L25.8326 10.3047L25.8659 10.2781L25.884 10.2663L25.9143 10.2426L25.9385 10.2249L25.9749 10.1982H25.9779L25.987 10.1864L25.9991 10.1775H26.0051L26.0384 10.1479L26.0778 10.1124L26.096 10.0976L26.1414 10.0592L26.1777 10.0266L26.1898 10.0207L26.1989 10.0118L26.2171 9.99112L26.2534 9.95562L26.2958 9.9142L26.32 9.89349L26.3593 9.85799L26.3745 9.84319L26.4017 9.81361L26.4229 9.78994L26.4502 9.76331L26.5228 9.68343V9.67456C26.538 9.6568 26.5531 9.63905 26.5682 9.6213L26.5925 9.59467L26.6318 9.54438C27.2585 8.76627 27.5885 7.69527 27.5885 6.44083C27.5885 3.54734 25.6903 2.01775 22.0938 2.01775H15.2156H14.9401V18.6686H16.5083V11.3343H22.1846C22.2512 11.3343 22.3117 11.3343 22.3723 11.3314H22.4571H22.4631H22.4813L22.563 11.3254H22.5691C22.7749 11.3195 22.9414 11.3047 23.0958 11.284H23.1231H23.1412H23.1503H23.1564H23.1685H23.1806H23.1867L23.2078 11.2811L23.2714 11.2722H23.2775L26.6924 18.5207L26.765 18.6805H28.3877L28.2091 18.2959L24.7306 10.9083L24.7397 10.8935ZM0.275491 2.01479H0V3.4142H5.80045V18.6657H7.3656V3.4142H13.163V2.01479H0.275491ZM74.3674 18.2219L66.5447 9.01479L73.877 2.48521L74.4038 2.01479H72.2664L72.1877 2.0858L62.2852 10.9467V2.01479H60.717V18.6657H62.2852V12.8284L65.3973 10.0562L72.6691 18.568L72.7508 18.6657H74.7368L74.3614 18.2219H74.3674ZM57.5897 11.7929H57.3415L57.3264 12.0355C57.1447 14.9645 54.7319 17.3462 51.9467 17.3462C48.2473 17.3462 45.6649 14.4675 45.6649 10.3432C45.6649 6.21894 48.2473 3.33728 51.9467 3.33728C54.6259 3.33728 56.6815 4.92012 57.063 7.27219L57.0993 7.48816H58.5888L58.5615 7.2071C58.5555 7.1568 57.9046 2 51.9497 2C49.6096 2 47.6266 2.84024 46.2159 4.43787C44.8929 5.93195 44.1664 8.02959 44.1664 10.3432C44.1664 12.6568 44.8929 14.7544 46.2159 16.2485C47.6266 17.8432 49.6096 18.6864 51.9497 18.6864C55.5644 18.6864 58.4586 15.9053 58.831 12.074L58.8582 11.7899H57.5928L57.5897 11.7929ZM36.0469 2C31.6058 2 29.3534 4.39349 29.3534 9.10947V18.6657H30.9216V12.7337H40.9422V18.6657H42.5104V9.10947C42.5104 4.39053 40.3337 2 36.0469 2ZM40.9422 9.10947V11.3343H30.9216V9.10947C30.9216 5.16272 32.5019 3.40237 36.0469 3.40237C39.2983 3.40237 40.9422 5.32249 40.9422 9.10947ZM16.5113 3.4142H22.0998C23.2805 3.4142 26.0233 3.71598 26.0233 6.50592C26.0233 9.49112 23.5651 9.93491 22.0968 9.93491H16.5083V3.4142H16.5113Z" fill="white"/>
<path fill-rule="evenodd" clip-rule="evenodd" d="M98.3898 18.6734H103.642V6.29172H108.416V2.01953H93.6187V6.28876H98.3898V18.6734ZM118.428 12.8686L121.549 18.6763H126.32L122.606 11.8894C123.653 11.3243 124.537 10.5018 125.203 9.41894C125.682 8.64083 125.909 7.69705 125.909 6.78284C125.909 3.629 123.329 2.02249 120.35 2.02249H110.348V18.6763H115.597V12.8686H118.431H118.428ZM115.594 5.98995H118.056C120.06 5.98995 120.656 6.5935 120.656 7.64379C120.656 9.13492 119.321 9.3006 118.343 9.3006H115.597V5.98995H115.594ZM133.665 12.7266L135.309 7.5935H135.357L136.883 12.7266H133.665ZM126.478 18.6734H131.754L132.52 16.2947H137.936L138.654 18.6734H144.094L137.885 2.01953H132.757L126.478 18.6734ZM145.26 18.6734H150.512V2.01953H145.26V18.6734ZM153.206 18.6734H166.003V14.4071H158.462V2.01953H153.206V18.6734Z" fill="white"/>
<path fill-rule="evenodd" clip-rule="evenodd" d="M83.6281 3.9574C84.6574 3.9574 85.3325 4.75326 85.3325 5.82427C85.3325 7.12012 84.3759 7.80651 83.3768 8.46924C82.7713 7.64675 81.8601 6.82722 81.8601 5.75622C81.8601 4.6645 82.6502 3.9574 83.6281 3.9574ZM85.8199 15.1231C85.3053 15.7858 84.6059 16.9456 82.6714 16.9456C81.1335 16.9456 79.9892 15.9663 79.9892 14.2118C79.9892 12.2769 81.5755 11.7533 82.5534 11.1586L85.8199 15.1231ZM88.7565 18.6763H92.02L88.8261 14.8923C89.5739 13.7533 89.9674 12.3183 90.1339 10.9041H87.8028C87.6908 11.9544 87.4789 12.5935 87.2882 13.0935L84.6998 10.0402C86.3103 9.19705 87.709 7.83018 87.709 5.91598C87.709 3.32131 85.7018 2.01953 83.5554 2.01953C81.294 2.01953 79.4745 3.54616 79.4745 5.89231C79.4745 7.30356 80.2919 8.37752 81.1517 9.44557C79.2414 10.4041 77.3281 11.8627 77.3281 14.1645C77.3281 17.2148 79.5199 18.9988 82.5746 18.9988C84.506 18.9988 86.0016 18.3302 87.2398 16.8509L88.7534 18.6763H88.7565Z" fill="#86BC22"/>
</g>
<g clip-path="url(#clip1_3220_21)">
<path fill-rule="evenodd" clip-rule="evenodd" d="M205.476 6.20465C205.476 5.99547 205.308 5.82812 205.103 5.82812H196.437C196.231 5.82812 196.063 5.99702 196.063 6.20465C196.063 6.28522 196.119 6.41847 196.143 6.48665C196.143 6.48665 198.576 13.0673 198.579 13.075C198.649 13.2454 198.765 13.3648 198.942 13.3648C199.072 13.3648 199.198 13.3059 199.292 13.1959L205.345 6.48975C205.425 6.42002 205.476 6.31931 205.476 6.2062" fill="#86BC22"/>
<path fill-rule="evenodd" clip-rule="evenodd" d="M196.657 0.620848C196.318 0.40857 195.725 0.374482 195.725 0.374482C195.725 0.374482 193.031 0.101775 192.288 0.0289495C191.544 -0.0454252 191.437 0.0351473 191.384 0.138962C191.334 0.239678 191.401 0.455054 191.81 0.772696C191.959 0.887357 192.123 0.989622 192.286 1.08104C192.441 1.16626 192.759 1.26388 192.767 1.26543C192.83 1.28092 192.897 1.25768 192.931 1.1988C192.962 1.14767 192.956 1.08569 192.925 1.03921C192.925 1.03766 192.899 0.99737 192.871 0.949336C192.745 0.727762 193.103 0.780444 193.103 0.780444C193.103 0.780444 196.525 1.07949 196.645 1.08724C196.914 1.10583 196.922 0.786641 196.656 0.620848M196.18 17.0871C196.042 17.0003 195.843 17.0499 195.762 17.1816L195.748 17.2018C194.527 19.0115 192.509 20.0497 190.343 19.98C186.875 19.8684 184.144 16.9321 184.255 13.435C184.365 9.93783 187.277 7.18286 190.746 7.29443C191.263 7.31147 191.778 7.39204 192.271 7.53459C192.435 7.58728 192.599 7.516 192.661 7.36725C192.724 7.2123 192.652 7.03411 192.493 6.96904C191.813 6.73197 191.103 6.60026 190.381 6.57702C186.439 6.44841 183.129 9.58145 183.003 13.5558C182.877 17.5318 185.981 20.8694 189.924 20.9964C192.5 21.0785 194.931 19.7475 196.27 17.5225L196.295 17.4822V17.4791C196.355 17.3397 196.307 17.1692 196.18 17.0886V17.0871ZM211.085 13.7232L208.03 6.29657C208.03 6.29657 207.967 6.1788 207.921 6.26248C207.89 6.3477 207.852 6.42362 207.816 6.4918C207.69 6.73662 207.544 6.90706 207.489 6.97368C207.478 6.99228 207.466 7.02792 207.494 7.0837C207.494 7.0837 210.75 13.8626 210.751 13.8657C210.794 13.9603 210.903 14.0005 210.994 13.9541C211.079 13.9122 211.117 13.8115 211.086 13.7216L211.085 13.7232ZM217.505 11.1588C216.567 8.73543 214.395 7.00467 211.837 6.639C211.665 6.61266 211.507 6.73197 211.483 6.89466C211.456 7.062 211.572 7.22005 211.738 7.24639C213.877 7.6601 215.625 9.12745 216.416 11.1697C217.027 12.7486 216.994 14.4731 216.318 16.0257C215.642 17.5783 214.409 18.7729 212.843 19.3896C212.184 19.6484 211.496 19.794 210.796 19.8219C208.12 19.9257 205.667 18.3034 204.694 15.7871C204.506 15.3005 204.377 14.7923 204.311 14.2779C204.294 14.1013 204.17 13.9804 203.999 13.9835C203.837 13.9897 203.706 14.1276 203.708 14.2949C203.758 15.0185 203.918 15.7282 204.181 16.4069C205.288 19.2672 208.076 21.1111 211.117 20.9933C211.913 20.9623 212.696 20.7981 213.444 20.5021C215.224 19.8018 216.626 18.4429 217.393 16.6796C218.161 14.9147 218.199 12.9546 217.505 11.1588ZM209.924 3.02253C209.893 2.32217 209.397 1.57687 208.646 1.51179C208.644 1.51179 205.712 1.22669 205.598 1.22669C205.187 1.22979 205.302 1.62491 205.302 1.62491C205.302 1.62491 205.879 2.86293 206.056 3.28749C206.076 3.33552 206.119 3.46878 206.131 3.51991C206.145 3.58034 206.148 3.64232 206.119 3.6981C206.096 3.74458 206.064 3.76008 206.021 3.78177C205.982 3.80191 205.964 3.8484 205.981 3.89023C205.995 3.92432 206.027 3.94447 206.061 3.94292C206.28 3.95376 206.647 3.99715 207.03 4.13815C207.047 4.14435 207.064 4.14745 207.079 4.1366C207.093 4.1273 207.1 4.11181 207.1 4.09476C207.1 4.08237 207.097 4.06842 207.094 4.06223C207.094 4.05913 206.365 2.26484 206.277 1.99523C206.233 1.85578 206.368 1.86198 206.368 1.86198C206.956 1.90381 207.855 1.97354 208.469 2.02622C209.013 2.0727 209.397 2.53754 209.397 3.06746C209.397 3.62063 209.04 3.96616 208.478 4.06223C208.478 4.06223 208.464 4.06223 208.458 4.06223C208.315 4.07307 208.209 4.20168 208.22 4.35043C208.231 4.48833 208.34 4.59215 208.471 4.59679C208.474 4.59679 208.506 4.59679 208.51 4.59524C209.215 4.54411 209.965 3.97701 209.924 3.02253ZM207.56 5.1546C207.429 4.8695 207.219 4.66497 206.918 4.53172C206.548 4.36747 206.17 4.34733 205.881 4.34733C205.793 4.34733 196.22 4.7192 195.905 4.72385C195.469 4.72385 195.375 4.41241 195.369 4.39381C195.361 4.36902 194.553 2.18427 194.429 1.81084C194.3 1.41728 193.55 1.31811 193.55 1.31811C193.509 1.32276 193.461 1.32741 193.424 1.38474C193.378 1.45601 193.397 1.55363 193.47 1.60321C193.493 1.61716 193.515 1.62801 193.536 1.6404C193.61 1.67914 193.652 1.70703 193.685 1.79225C193.69 1.8031 194.601 4.24506 194.804 4.81062C194.96 5.24757 195.453 5.27081 195.605 5.27081C195.638 5.27081 205.71 5.26617 205.712 5.26617C205.902 5.26617 206.102 5.25222 206.289 5.29096C206.38 5.30955 206.481 5.33899 206.54 5.41646C206.689 5.6148 206.643 5.84567 206.486 6.02386C205.843 6.75366 198.974 14.3476 198.974 14.3476C198.788 14.5212 198.548 14.7443 197.991 14.6808C197.886 14.6684 190.322 13.6721 190.319 13.6721C190.217 13.6721 190.136 13.7557 190.136 13.858C190.136 13.9525 190.208 14.0269 190.299 14.0377C190.299 14.0377 197.416 15.5934 198.405 15.6368C198.436 15.6368 198.465 15.6383 198.494 15.6383C199.187 15.6383 199.676 15.2277 199.889 15.0061C199.963 14.9302 207.15 6.72422 207.15 6.72422C207.153 6.72112 207.389 6.4763 207.534 6.15401C207.65 5.89215 207.746 5.56831 207.56 5.15615V5.1546ZM198.149 13.8936C198.149 13.8936 195.647 7.16427 195.639 7.15497C195.601 7.0713 195.499 6.97833 195.406 6.99693C195.338 7.00932 195.298 7.04806 195.252 7.09609C195.201 7.14877 190.802 12.9345 190.802 12.9345C190.752 13.0244 190.781 13.139 190.87 13.1917C190.959 13.2444 191.06 13.2134 191.123 13.122C191.125 13.122 195.152 8.33567 195.155 8.33257C195.207 8.26749 195.264 8.20242 195.344 8.19777C195.452 8.19312 195.501 8.35736 195.493 8.33722C195.485 8.31088 197.802 14.0315 197.803 14.0315C197.842 14.1276 197.949 14.1756 198.044 14.1369C198.14 14.0982 198.187 13.9897 198.15 13.8936H198.149Z" fill="white"/>
</g>
<defs>
<clipPath id="clip0_3220_21">
<rect width="166" height="17" fill="white" transform="translate(0 2)"/>
</clipPath>
<clipPath id="clip1_3220_21">
<rect width="35" height="21" fill="white" transform="translate(183)"/>
</clipPath>
</defs>
</svg>
